<?xml version="1.0" encoding="UTF-8"?><svg id="Layer_1" xmlns="http://www.w3.org/2000/svg" xmlns:xlink="http://www.w3.org/1999/xlink" viewBox="0 0 256 256"><defs><style>.cls-1,.cls-2,.cls-3{fill:none;}.cls-1,.cls-4,.cls-5,.cls-6,.cls-7,.cls-8,.cls-9,.cls-10,.cls-11,.cls-12,.cls-13,.cls-14{stroke-width:0px;}.cls-2{stroke:#929292;}.cls-2,.cls-3{stroke-width:.25px;}.cls-3{stroke:#fff;}.cls-15{clip-path:url(#clippath-1);}.cls-16{clip-path:url(#clippath-4);}.cls-17{clip-path:url(#clippath-3);}.cls-18{clip-path:url(#clippath-2);}.cls-19{clip-path:url(#clippath-7);}.cls-20{clip-path:url(#clippath-8);}.cls-21{clip-path:url(#clippath-6);}.cls-22{clip-path:url(#clippath-5);}.cls-23{clip-path:url(#clippath-9);}.cls-24{clip-path:url(#clippath-14);}.cls-25{clip-path:url(#clippath-13);}.cls-26{clip-path:url(#clippath-12);}.cls-27{clip-path:url(#clippath-10);}.cls-28{clip-path:url(#clippath-15);}.cls-29{clip-path:url(#clippath-17);}.cls-30{clip-path:url(#clippath-16);}.cls-31{clip-path:url(#clippath-11);}.cls-32{clip-path:url(#clippath-18);}.cls-5{fill:#5e5e5e;}.cls-6{fill:#727581;}.cls-7{fill:#595959;}.cls-8{fill:#5c575a;}.cls-9{fill:#cfd2d4;}.cls-10{fill:#dedde1;}.cls-11{fill:#929292;}.cls-12{fill:#fff;}.cls-13{fill:#f27200;}.cls-14{fill:#020000;}</style><clipPath id="clippath-1"><rect class="cls-1" x="56.37" y="35.45" width="14.1" height="147"/></clipPath><clipPath id="clippath-2"><rect class="cls-1" x="151.27" y="90.38" width="8.52" height="16.21"/></clipPath><clipPath id="clippath-3"><rect class="cls-1" width="256" height="256"/></clipPath><clipPath id="clippath-4"><rect class="cls-1" x="108.47" y="178.25" width="31.85" height="16.21"/></clipPath><clipPath id="clippath-5"><rect class="cls-1" x="38.34" y="1.6" width="62.41" height="30.77"/></clipPath><clipPath id="clippath-6"><rect class="cls-1" x="38.34" y="185.53" width="116.08" height="50.88"/></clipPath><clipPath id="clippath-7"><rect class="cls-1" x="76.76" y="100.81" width="95.27" height="9"/></clipPath><clipPath id="clippath-8"><rect class="cls-1" x="54.14" y="223.73" width="30.8" height="30.8"/></clipPath><clipPath id="clippath-9"><rect class="cls-1" x="121.63" y="227.66" width="22.94" height="22.94"/></clipPath><clipPath id="clippath-10"><rect class="cls-1" x="62.46" y="8.88" width="31.85" height="16.21"/></clipPath><clipPath id="clippath-11"><rect class="cls-1" x="182.98" y="95.06" width="3.25" height="35.53" transform="translate(-.48 224.87) rotate(-62.62)"/></clipPath><clipPath id="clippath-12"><rect class="cls-1" width="256" height="256"/></clipPath><clipPath id="clippath-13"><rect class="cls-1" x="168.52" y="103.88" width="31.57" height="3.25"/></clipPath><clipPath id="clippath-14"><rect class="cls-1" x="135.19" y="76.78" width="40.68" height="20.78"/></clipPath><clipPath id="clippath-15"><rect class="cls-1" width="256" height="256"/></clipPath><clipPath id="clippath-16"><rect class="cls-1" x="80.14" y="12.48" width="8.52" height="9"/></clipPath><clipPath id="clippath-17"><rect class="cls-1" x="71.3" y="98.7" width="57.81" height="13.22"/></clipPath><clipPath id="clippath-18"><rect class="cls-1" x="179.45" y="102.86" width="38.22" height="61.1"/></clipPath></defs><g class="cls-15"><rect class="cls-6" x="57.37" y="36.45" width="12.1" height="145"/></g><g class="cls-18"><g class="cls-17"><path class="cls-13" d="m152.27,104.33v-11.68c0-.37,0-.59.06-.74.08-.21.25-.38.46-.46.15-.06.37-.06.74-.06h3.99c.37,0,.59,0,.74.06.21.08.38.25.46.46.06.15.06.37.06.74v11.68c0,.37,0,.59-.06.74-.08.21-.25.38-.46.46-.15.06-.37.06-.74.06h-3.99c-.37,0-.59,0-.74-.06-.21-.08-.38-.25-.46-.46-.06-.15-.06-.37-.06-.74Z"/></g></g><g class="cls-16"><path class="cls-14" d="m116.31,179.25h16.16c2.01,0,3.21,0,4.02.34,1.16.42,2.07,1.33,2.49,2.49.34.8.34,2.01.34,4.02v.53c0,2.01,0,3.21-.34,4.02-.42,1.16-1.33,2.07-2.49,2.49-.8.34-2.01.34-4.02.34h-16.16c-2.01,0-3.21,0-4.02-.34-1.16-.42-2.07-1.33-2.49-2.49-.34-.8-.34-2.01-.34-4.02v-.53c0-2.01,0-3.21.34-4.02.42-1.16,1.33-2.07,2.49-2.49.8-.34,2.01-.34,4.02-.34Z"/></g><g class="cls-22"><path class="cls-10" d="m53.19,2.6h32.7c4.06,0,6.5,0,8.13.68,2.34.85,4.19,2.7,5.04,5.04.68,1.63.68,4.06.68,8.13v1.07c0,4.06,0,6.5-.68,8.13-.85,2.34-2.7,4.19-5.04,5.04-1.63.68-4.06.68-8.13.68h-32.7c-4.06,0-6.5,0-8.13-.68-2.34-.85-4.19-2.7-5.04-5.04-.68-1.63-.68-4.06-.68-8.13v-1.07c0-4.06,0-6.5.68-8.13.85-2.34,2.7-4.19,5.04-5.04,1.63-.68,4.06-.68,8.13-.68Z"/></g><g class="cls-21"><path class="cls-9" d="m62.52,186.53h67.72c6.8,0,10.88,0,13.6,1.14,3.92,1.43,7.01,4.52,8.44,8.44,1.14,2.72,1.14,6.8,1.14,13.6v2.52c0,6.8,0,10.88-1.14,13.6-1.43,3.92-4.52,7.01-8.44,8.44-2.72,1.14-6.8,1.14-13.6,1.14H62.52c-6.8,0-10.88,0-13.6-1.14-3.92-1.43-7.01-4.52-8.44-8.44-1.14-2.72-1.14-6.8-1.14-13.6v-2.52c0-6.8,0-10.88,1.14-13.6,1.43-3.92,4.52-7.01,8.44-8.44,2.72-1.14,6.8-1.14,13.6-1.14Z"/></g><g class="cls-19"><rect class="cls-8" x="77.76" y="101.81" width="93.27" height="7"/></g><g class="cls-20"><circle class="cls-4" cx="69.54" cy="239.13" r="14.27"/><circle class="cls-3" cx="69.54" cy="239.13" r="14.27"/></g><g class="cls-23"><circle class="cls-4" cx="133.1" cy="239.13" r="10.34"/><circle class="cls-3" cx="133.1" cy="239.13" r="10.34"/></g><g class="cls-27"><path class="cls-14" d="m70.3,9.88h16.16c2.01,0,3.21,0,4.02.34,1.16.42,2.07,1.33,2.49,2.49.34.8.34,2.01.34,4.02v.53c0,2.01,0,3.21-.34,4.02-.42,1.16-1.33,2.07-2.49,2.49-.8.34-2.01.34-4.02.34h-16.16c-2.01,0-3.21,0-4.02-.34-1.16-.42-2.07-1.33-2.49-2.49-.34-.8-.34-2.01-.34-4.02v-.53c0-2.01,0-3.21.34-4.02.42-1.16,1.33-2.07,2.49-2.49.8-.34,2.01-.34,4.02-.34Z"/></g><g class="cls-31"><g class="cls-26"><polyline class="cls-2" points="169.72 105.12 198.38 119.96 198.5 120.02"/><rect class="cls-11" x="198.31" y="119.63" width="1.25" height="1.25" transform="translate(.67 241.6) rotate(-62.62)"/></g></g><g class="cls-25"><polyline class="cls-2" points="169.52 105.51 197.84 105.51 197.97 105.51"/><rect class="cls-11" x="197.84" y="104.88" width="1.25" height="1.25"/></g><g class="cls-24"><g class="cls-28"><path class="cls-5" d="m141.43,95.27v-16.21h28.75v16.21h-28.75Zm-2.82-6.66v-2.89c0-.25.2-.45.45-.45s.46.2.46.45v2.89c0,.25-.2.45-.46.45s-.45-.2-.45-.45Zm-2.42,6.15c0,.99.81,1.8,1.8,1.8h35.08c1,0,1.8-.81,1.8-1.8v-15.18c0-.99-.81-1.8-1.8-1.8h-35.08c-.99,0-1.8.8-1.8,1.8v15.18Z"/></g></g><g class="cls-30"><ellipse class="cls-12" cx="84.4" cy="16.98" rx="3.26" ry="3.5"/></g><g class="cls-29"><rect class="cls-8" x="72.3" y="99.7" width="55.81" height="11.22"/></g><g class="cls-32"><path class="cls-7" d="m196.77,103.86c.49,0,.89.4.89.89v6.86s1.13.52,1.13,2.5v21.54c0,1.33.77,3.19,1.7,4.13,5.13,5.17,11.26,11.45,14.82,15.09,1.68,1.72,1.81,4.42.3,6.3-1.37,1.71-3.74,2.27-5.73,1.34-8.02-3.75-27.59-13.23-29.07-17.33-1.52-4.18,2.13-8.43,2.13-13.71v-17.37c0-1.95,1.07-2.5,1.07-2.5v-6.86c0-.49.4-.89.89-.89h11.86Z"/></g></svg>